<svg width="20" height="20" viewBox="0 0 20 20" fill="none" xmlns="http://www.w3.org/2000/svg">
<path d="M13.5333 6.46667L12.03 10.9758C11.9482 11.2213 11.8103 11.4444 11.6274 11.6274C11.4444 11.8103 11.2213 11.9482 10.9758 12.03L6.46667 13.5333L7.97 9.02417C8.05182 8.77869 8.18967 8.55563 8.37265 8.37265C8.55562 8.18968 8.77868 8.05183 9.02417 7.97001L13.5333 6.46667Z" stroke="#475569" stroke-width="1.66667" stroke-linecap="round" stroke-linejoin="round"/>
<path d="M10 18.3334C14.6024 18.3334 18.3333 14.6024 18.3333 10C18.3333 5.39765 14.6024 1.66669 10 1.66669C5.39762 1.66669 1.66666 5.39765 1.66666 10C1.66666 14.6024 5.39762 18.3334 10 18.3334Z" stroke="#475569" stroke-width="1.66667" stroke-linecap="round" stroke-linejoin="round"/>
</svg>
