<svg width="16" height="16" viewBox="0 0 16 16" fill="none" xmlns="http://www.w3.org/2000/svg">
<path d="M7.15527 3.38395C8.7082 3.19889 10.279 3.52717 11.6279 4.31865C12.9767 5.11014 14.0294 6.32134 14.6253 7.76729C14.6808 7.91696 14.6808 8.08161 14.6253 8.23129C14.3803 8.82528 14.0565 9.38362 13.6626 9.89129" stroke="#0F172A" stroke-width="1.33333" stroke-linecap="round" stroke-linejoin="round"/>
<path d="M9.38942 9.43872C9.01222 9.80303 8.50702 10.0046 7.98262 10.0001C7.45823 9.99551 6.9566 9.78517 6.58579 9.41436C6.21497 9.04354 6.00463 8.54191 6.00008 8.01752C5.99552 7.49313 6.19711 6.98792 6.56142 6.61072" stroke="#0F172A" stroke-width="1.33333" stroke-linecap="round" stroke-linejoin="round"/>
<path d="M11.6527 11.666C10.7683 12.1899 9.78165 12.5174 8.75959 12.6263C7.73752 12.7352 6.70398 12.623 5.7291 12.2973C4.75422 11.9716 3.86081 11.4399 3.10949 10.7385C2.35816 10.0371 1.76651 9.18226 1.37468 8.23202C1.31912 8.08235 1.31912 7.9177 1.37468 7.76802C1.96577 6.33459 3.00579 5.13152 4.33868 4.33936" stroke="#0F172A" stroke-width="1.33333" stroke-linecap="round" stroke-linejoin="round"/>
<path d="M1.3335 1.33337L14.6668 14.6667" stroke="#0F172A" stroke-width="1.33333" stroke-linecap="round" stroke-linejoin="round"/>
</svg>
