<svg width="64" height="64" viewBox="0 0 64 64" fill="none" xmlns="http://www.w3.org/2000/svg">
<path d="M15.9999 37.3333L19.9999 29.6C20.4348 28.7364 21.0962 28.0072 21.9135 27.4905C22.7309 26.9739 23.6732 26.6891 24.6399 26.6667H53.3333M53.3333 26.6667C54.148 26.6653 54.9523 26.8505 55.6843 27.2082C56.4163 27.566 57.0566 28.0866 57.5561 28.7303C58.0556 29.374 58.401 30.1236 58.5658 30.9215C58.7305 31.7194 58.7103 32.5445 58.5066 33.3333L54.3999 49.3333C54.1028 50.4842 53.4298 51.5028 52.4877 52.2275C51.5456 52.9521 50.3885 53.3414 49.1999 53.3333H10.6666C9.2521 53.3333 7.89554 52.7714 6.89535 51.7712C5.89515 50.7711 5.33325 49.4145 5.33325 48V13.3333C5.33325 11.9189 5.89515 10.5623 6.89535 9.56211C7.89554 8.56192 9.2521 8.00001 10.6666 8.00001H21.0666C21.9585 7.99127 22.8385 8.20638 23.6258 8.62567C24.4131 9.04495 25.0827 9.65501 25.5733 10.4L27.7333 13.6C28.2189 14.3374 28.88 14.9427 29.6573 15.3616C30.4345 15.7805 31.3036 15.9999 32.1866 16H47.9999C49.4144 16 50.771 16.5619 51.7712 17.5621C52.7713 18.5623 53.3333 19.9189 53.3333 21.3333V26.6667Z" stroke="#475569" stroke-width="5.33333" stroke-linecap="round" stroke-linejoin="round"/>
</svg>
