<svg width="16" height="16" viewBox="0 0 16 16" fill="none" xmlns="http://www.w3.org/2000/svg">
<path d="M8 2H3.33333C2.97971 2 2.64057 2.14048 2.39052 2.39052C2.14048 2.64057 2 2.97971 2 3.33333V12.6667C2 13.0203 2.14048 13.3594 2.39052 13.6095C2.64057 13.8595 2.97971 14 3.33333 14H12.6667C13.0203 14 13.3594 13.8595 13.6095 13.6095C13.8595 13.3594 14 13.0203 14 12.6667V8" stroke="#0A0A0A" stroke-width="1.33333" stroke-linecap="round" stroke-linejoin="round"/>
<path d="M12.25 1.75003C12.5152 1.48481 12.8749 1.33582 13.25 1.33582C13.6251 1.33582 13.9848 1.48481 14.25 1.75003C14.5152 2.01525 14.6642 2.37496 14.6642 2.75003C14.6642 3.1251 14.5152 3.48481 14.25 3.75003L8.24133 9.75936C8.08302 9.91753 7.88746 10.0333 7.67266 10.096L5.75732 10.656C5.69996 10.6728 5.63915 10.6738 5.58126 10.6589C5.52338 10.6441 5.47054 10.614 5.42829 10.5717C5.38604 10.5295 5.35592 10.4766 5.34109 10.4188C5.32626 10.3609 5.32726 10.3001 5.34399 10.2427L5.90399 8.32736C5.96701 8.11273 6.08301 7.9174 6.24132 7.75936L12.25 1.75003Z" stroke="#0A0A0A" stroke-width="1.33333" stroke-linecap="round" stroke-linejoin="round"/>
</svg>
