<svg width="168" height="40" viewBox="0 0 168 40" fill="none" xmlns="http://www.w3.org/2000/svg">
<rect width="40" height="40" rx="12" fill="url(#paint0_linear_2125_1480)"/>
<path d="M22 13.256C21.3465 13.0882 20.6747 13.0022 20 13C19.327 13.001 18.6561 13.0771 18 13.227M28.098 18C28.67 19.068 29 20.24 29 21.444C29 25.89 24.97 29 20 29C15.03 29 11 26 11 21.444C11 20.193 11.288 19.034 11.792 18" stroke="white" stroke-width="2" stroke-linecap="round" stroke-linejoin="round"/>
<path d="M11.75 18C11.75 18 10.11 11.58 11.5 11C12.89 10.42 16 11 17.781 13" stroke="white" stroke-width="2" stroke-linecap="round" stroke-linejoin="round"/>
<path d="M28.172 18.002C28.172 18.002 29.812 11.582 28.422 11.002C27.032 10.422 23.922 11.002 22.14 13.002" stroke="white" stroke-width="2" stroke-linecap="round" stroke-linejoin="round"/>
<path d="M16 22V22.5" stroke="white" stroke-width="2" stroke-linecap="round" stroke-linejoin="round"/>
<path d="M24 22V22.5" stroke="white" stroke-width="2" stroke-linecap="round" stroke-linejoin="round"/>
<path d="M19.25 24.25H20.75L20 25L19.25 24.25Z" stroke="white" stroke-width="2" stroke-linecap="round" stroke-linejoin="round"/>
<path d="M81.568 8.44L76.032 31H68.32L65.216 17.176L62.048 31H54.336L48.864 8.44H55.648L58.272 23.864L61.824 8.44H68.704L72.16 23.736L74.784 8.44H81.568ZM92.4215 31.224C90.6295 31.224 89.0188 30.8507 87.5895 30.104C86.1815 29.3573 85.0722 28.2907 84.2615 26.904C83.4508 25.5173 83.0455 23.8853 83.0455 22.008C83.0455 20.152 83.4508 18.5307 84.2615 17.144C85.0935 15.7573 86.2135 14.6907 87.6215 13.944C89.0508 13.1973 90.6615 12.824 92.4535 12.824C94.2455 12.824 95.8455 13.1973 97.2535 13.944C98.6828 14.6907 99.8028 15.7573 100.614 17.144C101.446 18.5307 101.862 20.152 101.862 22.008C101.862 23.864 101.446 25.496 100.614 26.904C99.8028 28.2907 98.6828 29.3573 97.2535 30.104C95.8242 30.8507 94.2135 31.224 92.4215 31.224ZM92.4215 25.784C93.2962 25.784 94.0215 25.464 94.5975 24.824C95.1948 24.1627 95.4935 23.224 95.4935 22.008C95.4935 20.792 95.1948 19.864 94.5975 19.224C94.0215 18.584 93.3068 18.264 92.4535 18.264C91.6002 18.264 90.8855 18.584 90.3095 19.224C89.7335 19.864 89.4455 20.792 89.4455 22.008C89.4455 23.2453 89.7228 24.184 90.2775 24.824C90.8322 25.464 91.5468 25.784 92.4215 25.784ZM110.525 16.216C111.229 15.192 112.083 14.3813 113.085 13.784C114.088 13.1867 115.165 12.888 116.317 12.888V19.576H114.557C113.192 19.576 112.179 19.8427 111.517 20.376C110.856 20.9093 110.525 21.8373 110.525 23.16V31H104.253V13.048H110.525V16.216ZM117.382 22.008C117.382 20.152 117.712 18.5307 118.374 17.144C119.056 15.7573 119.984 14.6907 121.158 13.944C122.331 13.1973 123.632 12.824 125.062 12.824C126.214 12.824 127.238 13.0693 128.134 13.56C129.051 14.0293 129.766 14.68 130.278 15.512V7.32H136.582V31H130.278V28.504C129.787 29.336 129.094 29.9973 128.198 30.488C127.302 30.9787 126.246 31.224 125.03 31.224C123.6 31.224 122.299 30.8507 121.126 30.104C119.974 29.3573 119.056 28.2907 118.374 26.904C117.712 25.496 117.382 23.864 117.382 22.008ZM130.31 22.008C130.31 20.856 129.99 19.9493 129.35 19.288C128.731 18.6267 127.963 18.296 127.046 18.296C126.107 18.296 125.328 18.6267 124.71 19.288C124.091 19.928 123.782 20.8347 123.782 22.008C123.782 23.16 124.091 24.0773 124.71 24.76C125.328 25.4213 126.107 25.752 127.046 25.752C127.963 25.752 128.731 25.4213 129.35 24.76C129.99 24.0987 130.31 23.1813 130.31 22.008Z" fill="#EAB308"/>
<path d="M146.268 8.44V31H139.996V8.44H146.268ZM166.671 8.44V13.432H160.655V31H154.383V13.432H148.431V8.44H166.671Z" fill="#0EA5E9"/>
<defs>
<linearGradient id="paint0_linear_2125_1480" x1="0" y1="0" x2="40" y2="40" gradientUnits="userSpaceOnUse">
<stop stop-color="#2B7FFF"/>
<stop offset="1" stop-color="#FAC710"/>
</linearGradient>
</defs>
</svg>
